<svg width="13" height="14" viewBox="0 0 13 14" fill="none" xmlns="http://www.w3.org/2000/svg">
<path d="M9.17133 1.50039L7.838 2.83372H1.33333V12.1671H10.6667V5.66239L12 4.32906V12.8337C12 13.0105 11.9298 13.1801 11.8047 13.3051C11.6797 13.4302 11.5101 13.5004 11.3333 13.5004H0.666667C0.489856 13.5004 0.320286 13.4302 0.195262 13.3051C0.0702379 13.1801 0 13.0105 0 12.8337V2.16706C0 1.99025 0.0702379 1.82068 0.195262 1.69565C0.320286 1.57063 0.489856 1.50039 0.666667 1.50039H9.17133ZM11.6567 0.900391L12.6 1.84439L6.472 7.97239L5.53067 7.97439L5.52933 7.02972L11.6567 0.900391Z" fill="black"/>
</svg>
